<svg height='100px' width='100px'  fill="#000000" version="1.0" xmlns="http://www.w3.org/2000/svg" xmlns:xlink="http://www.w3.org/1999/xlink" x="0px" y="0px" viewBox="0 0 100 81.03" enable-background="new 0 0 100 81.03" xml:space="preserve"><path d="M99.121,49.847c-1.146-3.335-2.189-5.107-3.023-7.923c-0.162-0.548-4.629-12.941-24.168-24.312
	c-3.25-1.89-15.752-5.482-18.579-6.537c-0.771-0.386-1.257-0.917-1.464-1.089c-1.924-1.599-4.757-5.829-7.385-7.347
	c-3.692-2.132-6.283-2.36-9.021-2.55c-2.328-0.163-6.326-0.265-10.218,1.243c-3.896,1.504-5.012,4.348-5.112,5.287L19.922,8.25
	c0.634,0.57,1.056,1.57,1.056,2.491c0,0.894-0.542,1.801-0.542,3.009c0,1.544,0.609,4.153,3.257,6.356
	c3.03,2.516,7.017,3.881,10.472,5.703c0.05,0.032,0.125,0.058,0.19,0.115c3.573,3.009,1.073,6.684,1.073,6.684l-19.897-8.495
	c-6.451-3.264-11.55-1.598-14.862,3.313c-0.243,0.36-0.315,0.469-0.576,0.912c-0.154,0.263-0.108,0.622,0.078,0.773
	c0.247,0.2,0.616,0.053,0.756-0.124c2.415-3.048,7.437-3.462,10.152-1.581c0.142,0.099,0.286,0.205,0.426,0.313
	c0.47,1.78,0.11,1.329,1.096,5.069c0.594,2.235,2.587,3.904,2.587,3.904s15.531,14.655,17.11,16.104
	c2.284,2.096,7.177,3.075,11.283,1.595c1.634-0.589,5.276-2.347,8.801-3.553c0.928-0.318,1.417-0.123,2.005,0.513
	c0.891,0.966,1.535,1.606,3.49,3.61c0.459,0.471,0.562,1.173,0,1.784l-9.699,11.007l-0.065,0.063
	c-3.071,3.234-2.887,6.422-1.968,9.515c0.368,1.238,1.281,2.755,2.209,3.556c0.234,0.207,0.436,0.154,0.615,0.056
	c0.204-0.157,0.162-0.507,0.101-0.688c-1.352-4.014-0.391-7.268,3.02-8.905c1.6,0.914,3.764,2.157,4.451,2.557
	c1.784,1.038,4.329,0.541,5.405,0.255c3.258-0.861,17.752-4.652,17.752-4.652c11.187-3.19,13.014-9.994,15.895-13.47
	c0.036-0.047,0.073-0.092,0.106-0.137c1.545,0.303,2.348,0.371,3.317-0.426C100.789,54.018,99.746,51.515,99.121,49.847z
	 M32.209,13.161c1.981,1.157,4.97,0.958,4.97,0.958s-0.739,2.135-3.401,3.397c-1.376,0.656-3.083,1.143-5.781,1.065
	c-1.776-0.051-3.356-1.002-4.12-2.156c-0.94-1.408-1.092-3.101-1.092-3.101s0.886-0.104,2.021-0.63
	c1.139-0.528,1.487-2.7,1.432-3.741c-0.985-0.101-2.373-0.093-3.805,0.134c0,0,0.152-2.254,2.074-2.747
	c1.672-0.429,1.665,0.499,3.577,0.485c0.113-0.001,0.31-0.002,0.437-0.003c0.421-0.003,0.96-0.136,1.267-0.238
	c1.285-0.421,1.881-0.72,3.456-0.657c1.921,0.076,4.154,0.434,4.946,3.168c-2.289-0.337-4.426-0.488-7.604-0.199
	C30.562,10.206,30.231,12.005,32.209,13.161z"></path><path d="M25.856,13.342c-0.262,0.098-0.436,0.488-0.413,0.755c0.1,1.148,0.452,2.272,1.726,2.387
	c1.438,0.137,1.993-1.066,1.917-2.401c-0.007-0.071-0.032-0.368-0.174-0.465C27.54,12.565,26.328,13.163,25.856,13.342z"></path></svg>